# Blender v2.79 (sub 0) OBJ File: 'WizardHat.blend'
# www.blender.org
mtllib WizardHat.mtl
o Cylinder
v -2.504505 0.834994 -2.504505
v -3.541905 0.547336 -0.000000
v -2.504505 0.774123 2.504504
v -0.000000 0.576369 3.541905
v 2.504505 0.749695 2.504505
v 3.541905 0.525960 0.000000
v 2.504505 0.832678 -2.504505
v 0.000000 0.639851 -3.541905
v -0.000000 0.749695 -1.568362
v 1.108999 0.749695 -1.108999
v 1.568362 0.749695 0.000000
v 1.108999 0.749695 1.108999
v -0.000000 0.749695 1.568362
v -1.108999 0.749695 1.108999
v -1.568362 0.749695 -0.000000
v -1.108999 0.749695 -1.108999
v -0.000000 1.615942 -1.527398
v 0.978756 1.615942 -1.121983
v 1.384170 1.615942 -0.143227
v 0.978756 1.615942 0.835529
v -0.000000 1.615942 1.240943
v -0.978756 1.615942 0.835529
v -1.384171 1.615942 -0.143227
v -0.978756 1.615942 -1.121983
v -0.000000 2.601023 -1.606165
v 0.754835 2.601023 -1.293502
v 1.067498 2.601023 -0.538667
v 0.754835 2.601023 0.216168
v -0.000000 2.601023 0.528831
v -0.754835 2.601023 0.216168
v -1.067498 2.601023 -0.538667
v -0.754835 2.601023 -1.293502
v -0.000000 3.524793 -1.948075
v 0.550346 3.524793 -1.720114
v 0.778306 3.524793 -1.169768
v 0.550346 3.524793 -0.619423
v -0.000000 3.524793 -0.391462
v -0.550346 3.524793 -0.619423
v -0.778306 3.524793 -1.169768
v -0.550346 3.524793 -1.720114
v -0.000000 4.049511 -2.195794
v 0.317341 4.049511 -2.064347
v 0.448788 4.049511 -1.747007
v 0.317341 4.049511 -1.429666
v -0.000000 4.049511 -1.298219
v -0.317341 4.049511 -1.429666
v -0.448788 4.049511 -1.747007
v -0.317341 4.049511 -2.064347
v -0.000000 4.559162 -2.425538
v -0.000242 0.618027 -1.569855
v -0.000242 0.508183 -3.543398
v 2.504263 0.618027 2.503012
v 1.108757 0.618027 1.107506
v -2.504747 0.642455 2.503011
v -1.109241 0.618027 1.107506
v -0.000242 0.618027 1.566869
v -0.000242 0.444701 3.540411
v -2.504747 0.703326 -2.505998
v -1.109241 0.618027 -1.110492
v -1.568604 0.618027 -0.001493
v -3.542147 0.415668 -0.001493
v 3.541663 0.394292 -0.001493
v 1.568120 0.618027 -0.001493
v 1.108757 0.618027 -1.110492
v 2.504263 0.701010 -2.505998
v -0.000242 0.741273 -1.569855
v 1.108757 0.741273 -1.110492
v 1.568120 0.741273 -0.001493
v 1.108757 0.741273 1.107506
v -0.000242 0.741273 1.566869
v -1.109241 0.741273 1.107506
v -1.568604 0.741273 -0.001493
v -1.109241 0.741273 -1.110492
v -1.043878 1.182819 -1.115491
v -0.000000 1.182819 -1.547880
v -1.476266 1.182819 -0.071614
v 1.043878 1.182819 -1.115491
v 1.476266 1.182819 -0.071614
v -0.000000 1.182819 1.404652
v -1.043878 1.182819 0.972264
v 1.043878 1.182819 0.972264
v -0.000000 0.722949 -1.757636
v 1.245963 0.722949 -1.241541
v 1.762058 0.722949 0.004422
v 1.245963 0.722949 1.250386
v -0.000000 0.722949 1.766481
v -1.245963 0.722949 1.250385
v -1.762058 0.722949 0.004422
v -1.245963 0.722949 -1.241541
v -1.172799 1.209565 -1.248835
v -1.172799 1.209565 1.096763
v 1.172799 1.209565 1.096763
v 1.172799 1.209565 -1.248835
v -0.000000 1.209565 -1.734624
v -1.658589 1.209565 -0.076036
v 1.658589 1.209565 -0.076036
v -0.000000 1.209565 1.582553
vn 0.3827 0.0098 -0.9238
vn -0.3833 -0.0098 0.9236
vn -0.3827 0.0112 -0.9238
vn -0.9238 -0.0026 0.3829
vn -0.9239 0.0060 -0.3827
vn -0.9241 0.0060 -0.3821
vn -0.9239 -0.0026 0.3827
vn 0.8423 0.4108 0.3489
vn -0.1378 -0.9888 0.0571
vn -0.0579 -0.9885 0.1397
vn 0.0579 -0.9885 0.1397
vn 0.1378 -0.9888 0.0571
vn -0.9235 0.0278 -0.3825
vn 0.3816 -0.0737 -0.9214
vn -0.3816 -0.0737 -0.9214
vn -0.8423 0.4108 0.3489
vn 0.3182 0.5554 0.7683
vn 0.9145 0.1419 -0.3788
vn -0.9145 0.1419 -0.3788
vn -0.3182 0.5554 0.7683
vn 0.2031 0.8475 0.4904
vn -0.2816 0.6772 0.6798
vn 0.8093 0.4824 0.3352
vn 0.3621 -0.3236 -0.8742
vn -0.3621 -0.3236 -0.8742
vn -0.8093 0.4824 0.3352
vn 0.2816 0.6772 0.6798
vn 0.9235 0.0278 -0.3825
vn -0.3533 -0.3845 -0.8529
vn 0.9124 0.1572 -0.3779
vn -0.9124 0.1572 -0.3779
vn -0.2031 0.8475 0.4904
vn 0.6529 0.7075 0.2704
vn 0.3508 -0.3998 -0.8468
vn -0.3508 -0.3998 -0.8468
vn -0.6529 0.7075 0.2704
vn -0.5571 0.7978 0.2307
vn 0.1682 0.8982 0.4061
vn 0.8839 0.2909 -0.3661
vn -0.8839 0.2909 -0.3661
vn -0.1682 0.8982 0.4061
vn 0.5571 0.7978 0.2307
vn 0.3533 -0.3845 -0.8529
vn -0.3819 0.0112 -0.9241
vn 0.0671 -0.9971 0.0348
vn -0.0435 -0.9987 0.0253
vn 0.0427 -0.9988 0.0256
vn -0.0783 -0.9965 0.0293
vn -0.0310 -0.9979 -0.0570
vn 0.0576 -0.9968 -0.0555
vn -0.0654 -0.9962 -0.0575
vn 0.0227 -0.9979 -0.0607
vn 0.3833 -0.0112 0.9235
vn 0.9239 0.0026 -0.3827
vn 0.9237 -0.0060 0.3831
vn 0.9239 -0.0060 0.3827
vn 0.9240 0.0026 -0.3824
vn 0.3827 -0.0112 0.9238
vn -0.3827 -0.0098 0.9238
vn 0.3820 0.0098 -0.9241
vn -0.0576 0.9968 0.0555
vn -0.0671 0.9971 -0.0348
vn 0.0310 0.9979 0.0570
vn -0.0227 0.9979 0.0607
vn 0.0783 0.9965 -0.0293
vn 0.0654 0.9962 0.0575
vn -0.0427 0.9988 -0.0256
vn 0.0435 0.9987 -0.0253
vn -0.9239 0.0000 -0.3827
vn 0.0000 -1.0000 -0.0000
vn -0.3827 0.0000 0.9239
vn 0.9239 0.0000 0.3827
vn 0.3827 0.0000 -0.9239
vn -0.3827 0.0000 -0.9239
vn -0.9239 0.0000 0.3827
vn 0.3827 0.0000 0.9239
vn 0.9239 0.0000 -0.3827
vn -0.3823 0.0436 -0.9230
vn -0.9158 0.1320 -0.3793
vn 0.9158 0.1320 -0.3793
vn 0.3823 0.0436 -0.9230
vn -0.3613 0.3297 0.8722
vn 0.3613 0.3297 0.8722
vn 0.8942 0.2514 0.3704
vn -0.8942 0.2514 0.3704
vn -0.1353 -0.9892 -0.0560
vn -0.0553 -0.9895 -0.1336
vn 0.0553 -0.9895 -0.1336
vn 0.1353 -0.9892 -0.0560
vn -0.0615 0.9870 -0.1484
vn 0.0615 0.9870 -0.1484
vn 0.1435 0.9879 0.0594
vn 0.0586 0.9882 0.1415
vn -0.1463 0.9874 -0.0606
vn -0.1435 0.9879 0.0594
vn 0.1463 0.9874 -0.0606
vn -0.0586 0.9882 0.1415
usemtl Material.001
s off
f 14//1 13//1 56//1 55//1
f 4//2 3//2 54//2 57//2
f 13//3 12//3 53//3 56//3
f 3//4 2//4 61//4 54//4
f 12//5 11//5 63//5 53//5
f 2//6 1//6 58//6 61//6
f 11//7 10//7 64//7 63//7
f 19//8 27//8 28//8 20//8
f 10//9 83//9 84//9 11//9
f 9//10 82//10 83//10 10//10
f 16//11 89//11 82//11 9//11
f 15//12 88//12 89//12 16//12
f 31//13 39//13 40//13 32//13
f 17//14 25//14 26//14 18//14
f 24//15 32//15 25//15 17//15
f 22//16 30//16 31//16 23//16
f 20//17 28//17 29//17 21//17
f 18//18 26//18 27//18 19//18
f 23//19 31//19 32//19 24//19
f 21//20 29//20 30//20 22//20
f 36//21 44//21 45//21 37//21
f 29//22 37//22 38//22 30//22
f 27//23 35//23 36//23 28//23
f 25//24 33//24 34//24 26//24
f 32//25 40//25 33//25 25//25
f 30//26 38//26 39//26 31//26
f 28//27 36//27 37//27 29//27
f 26//28 34//28 35//28 27//28
f 48//29 49//29 41//29
f 34//30 42//30 43//30 35//30
f 39//31 47//31 48//31 40//31
f 37//32 45//32 46//32 38//32
f 35//33 43//33 44//33 36//33
f 33//34 41//34 42//34 34//34
f 40//35 48//35 41//35 33//35
f 38//36 46//36 47//36 39//36
f 46//37 49//37 47//37
f 44//38 49//38 45//38
f 42//39 49//39 43//39
f 47//40 49//40 48//40
f 45//41 49//41 46//41
f 43//42 49//42 44//42
f 41//43 49//43 42//43
f 1//44 8//44 51//44 58//44
f 60//45 55//45 54//45 61//45
f 50//46 59//46 58//46 51//46
f 64//47 50//47 51//47 65//47
f 53//48 63//48 62//48 52//48
f 55//49 56//49 57//49 54//49
f 59//50 60//50 61//50 58//50
f 63//51 64//51 65//51 62//51
f 56//52 53//52 52//52 57//52
f 5//53 4//53 57//53 52//53
f 15//54 14//54 55//54 60//54
f 6//55 5//55 52//55 62//55
f 16//56 15//56 60//56 59//56
f 7//57 6//57 62//57 65//57
f 9//58 16//58 59//58 50//58
f 10//59 9//59 50//59 64//59
f 8//60 7//60 65//60 51//60
f 2//61 15//61 16//61 1//61
f 3//62 14//62 15//62 2//62
f 4//63 13//63 14//63 3//63
f 5//64 12//64 13//64 4//64
f 6//65 11//65 12//65 5//65
f 7//66 10//66 11//66 6//66
f 8//67 9//67 10//67 7//67
f 1//68 16//68 9//68 8//68
f 60//69 72//69 73//69 59//69
f 73//70 66//70 67//70 68//70 69//70 70//70 71//70 72//70
f 56//71 70//71 71//71 55//71
f 63//72 68//72 69//72 53//72
f 50//73 66//73 67//73 64//73
f 59//74 73//74 66//74 50//74
f 55//75 71//75 72//75 60//75
f 53//76 69//76 70//76 56//76
f 64//77 67//77 68//77 63//77
f 74//78 24//78 17//78 75//78
f 76//79 23//79 24//79 74//79
f 77//80 18//80 19//80 78//80
f 75//81 17//81 18//81 77//81
f 79//82 21//82 22//82 80//82
f 81//83 20//83 21//83 79//83
f 78//84 19//84 20//84 81//84
f 80//85 22//85 23//85 76//85
f 11//86 84//86 85//86 12//86
f 12//87 85//87 86//87 13//87
f 13//88 86//88 87//88 14//88
f 14//89 87//89 88//89 15//89
usemtl Material.002
f 79//90 97//90 92//90 81//90
f 80//91 91//91 97//91 79//91
f 74//92 90//92 95//92 76//92
f 75//93 94//93 90//93 74//93
f 89//78 90//78 94//78 82//78
f 87//85 91//85 95//85 88//85
f 85//83 92//83 97//83 86//83
f 83//80 93//80 96//80 84//80
f 88//79 95//79 90//79 89//79
f 86//82 97//82 91//82 87//82
f 84//84 96//84 92//84 85//84
f 82//81 94//81 93//81 83//81
f 81//94 92//94 96//94 78//94
f 78//95 96//95 93//95 77//95
f 76//96 95//96 91//96 80//96
f 77//97 93//97 94//97 75//97
