# Blender v2.79 (sub 0) OBJ File: 'WizardHatHouse2.blend'
# www.blender.org
mtllib WizardHatHouse2.mtl
o Cylinder.002
v 0.384761 4.194710 -0.113324
v 0.252416 4.849792 -0.113324
v 0.463307 4.210578 -0.080132
v 0.330961 4.865661 -0.080132
v 0.495841 4.217151 0.000000
v 0.363496 4.872234 0.000000
v 0.463307 4.210578 0.080132
v 0.330961 4.865661 0.080132
v 0.384761 4.194710 0.113324
v 0.252416 4.849792 0.113324
v 0.306216 4.178841 0.080132
v 0.173870 4.833924 0.080132
v 0.273681 4.172268 -0.000000
v 0.141336 4.827352 -0.000000
v 0.306216 4.178841 -0.080132
v 0.173870 4.833924 -0.080132
vn 0.3751 0.0758 -0.9239
vn 0.9056 0.1830 -0.3827
vn 0.9056 0.1830 0.3827
vn 0.3751 0.0758 0.9239
vn -0.3751 -0.0758 0.9239
vn -0.9056 -0.1830 0.3827
vn -0.1980 0.9802 -0.0000
vn -0.9056 -0.1830 -0.3827
vn -0.3751 -0.0758 -0.9239
vn 0.1980 -0.9802 0.0000
usemtl None
s off
f 1//1 2//1 4//1 3//1
f 3//2 4//2 6//2 5//2
f 5//3 6//3 8//3 7//3
f 7//4 8//4 10//4 9//4
f 9//5 10//5 12//5 11//5
f 11//6 12//6 14//6 13//6
f 4//7 2//7 16//7 14//7 12//7 10//7 8//7 6//7
f 13//8 14//8 16//8 15//8
f 15//9 16//9 2//9 1//9
f 1//10 3//10 5//10 7//10 9//10 11//10 13//10 15//10
o Cylinder.001
v 0.023515 2.223119 0.618013
v 0.146212 2.372268 1.147738
v 0.227774 2.261354 0.559936
v 0.350471 2.410504 1.089661
v 0.408471 2.143759 0.551193
v 0.531168 2.292908 1.080917
v 0.459756 1.939218 0.596904
v 0.582454 2.088368 1.126629
v 0.351588 1.767549 0.670294
v 0.474285 1.916699 1.200019
v 0.147329 1.729314 0.728371
v 0.270026 1.878464 1.258096
v -0.033368 1.846909 0.737115
v 0.089329 1.996059 1.266839
v -0.084654 2.051450 0.691403
v 0.038044 2.200600 1.221128
v 0.343248 2.362729 1.104785
v 0.175672 2.331360 1.152432
v 0.491493 2.266253 1.097612
v 0.533568 2.098446 1.135114
v 0.444825 1.957607 1.195324
v 0.277250 1.926239 1.242971
v 0.129004 2.022715 1.250144
v 0.086929 2.190522 1.212642
vn -0.2176 -0.2645 -0.9395
vn 0.2176 0.2645 0.9395
vn -0.2377 0.9480 -0.2119
vn 0.5013 0.7956 -0.3401
vn 0.9467 0.1772 -0.2692
vn 0.8375 -0.5450 -0.0405
vn 0.2377 -0.9480 0.2119
vn -0.5013 -0.7956 0.3401
vn -0.9467 -0.1772 0.2692
vn -0.8375 0.5450 0.0405
usemtl Material.004
s off
f 17//11 19//11 21//11 23//11 25//11 27//11 29//11 31//11
f 33//12 34//12 40//12 39//12 38//12 37//12 36//12 35//12
usemtl Material.005
f 17//13 18//13 20//13 19//13
f 19//14 20//14 22//14 21//14
f 21//15 22//15 24//15 23//15
f 23//16 24//16 26//16 25//16
f 25//17 26//17 28//17 27//17
f 27//18 28//18 30//18 29//18
f 30//12 28//12 38//12 39//12
f 29//19 30//19 32//19 31//19
f 31//20 32//20 18//20 17//20
f 26//12 24//12 36//12 37//12
f 32//12 30//12 39//12 40//12
f 22//12 20//12 33//12 35//12
f 28//12 26//12 37//12 38//12
f 18//12 32//12 40//12 34//12
f 20//12 18//12 34//12 33//12
f 24//12 22//12 35//12 36//12
o Cylinder
v 0.000000 0.101594 -2.214789
v 0.000000 0.190695 -2.214789
v 1.107395 0.101594 -1.918064
v 1.107395 0.190695 -1.918064
v 1.918064 0.101594 -1.107394
v 1.918064 0.190695 -1.107394
v 2.214789 0.101594 0.000000
v 2.214789 0.190695 0.000000
v 1.918064 0.101594 1.107395
v 1.918064 0.190695 1.107395
v 1.107395 0.101594 1.918064
v 1.107395 0.190695 1.918064
v 0.000000 0.101594 2.214789
v 0.000000 0.190695 2.214789
v -1.107394 0.101594 1.918064
v -1.107394 0.190695 1.918064
v -1.918063 0.101594 1.107395
v -1.918063 0.190695 1.107395
v -2.214789 0.101594 0.000001
v -2.214789 0.190695 0.000001
v -1.918064 0.101594 -1.107394
v -1.918064 0.190695 -1.107394
v -1.107396 0.101594 -1.918063
v -1.107396 0.190695 -1.918063
v 0.843487 0.190695 -1.460962
v -0.000000 0.190695 -1.686973
v 1.460962 0.190695 -0.843486
v 1.686973 0.190695 0.000000
v 1.460962 0.190695 0.843487
v 0.843487 0.190695 1.460962
v 0.000000 0.190695 1.661213
v -0.843486 0.190695 1.460962
v -1.460961 0.190695 0.843487
v -1.686973 0.190695 0.000001
v -1.460962 0.190695 -0.843486
v -0.843488 0.190695 -1.460961
v 0.444019 3.045649 -0.777220
v -0.000000 3.133471 -0.897456
v 0.769064 2.981358 -0.448728
v 0.888039 2.957826 0.000000
v 0.769064 2.981358 0.448729
v 0.444020 3.045649 0.777220
v 0.000000 3.133471 0.897457
v -0.444019 3.221294 0.777220
v -0.769064 3.285585 0.448729
v -0.888039 3.309117 0.000001
v -0.769065 3.285585 -0.448728
v -0.444020 3.221294 -0.777220
v 1.001169 4.205216 -0.322061
v 0.883147 4.399842 -0.371884
v 1.087567 4.062740 -0.185942
v 1.119191 4.010591 0.000000
v 1.087567 4.062740 0.185942
v 1.001169 4.205216 0.322061
v 0.883147 4.399842 0.371884
v 0.765125 4.594467 0.322062
v 0.678727 4.736943 0.185943
v 0.647104 4.789093 0.000000
v 0.678727 4.736943 -0.185942
v 0.765125 4.594468 -0.322061
v 1.741779 4.014505 -0.138841
v 1.812865 4.064685 -0.160319
v 1.689741 3.977771 -0.080159
v 1.670693 3.964325 0.000000
v 1.689741 3.977771 0.080160
v 1.741779 4.014505 0.138841
v 1.812865 4.064685 0.160320
v 1.883950 4.114866 0.138841
v 1.935989 4.151601 0.080160
v 1.955036 4.165046 0.000000
v 1.935989 4.151601 -0.080159
v 1.883950 4.114866 -0.138840
v 1.936383 3.697753 -0.054964
v 1.965059 3.679345 -0.063467
v 1.915391 3.711229 -0.031733
v 1.907707 3.716161 0.000000
v 1.915391 3.711229 0.031734
v 1.936383 3.697753 0.054965
v 1.965059 3.679345 0.063468
v 1.993736 3.660936 0.054965
v 2.014728 3.647460 0.031734
v 2.022412 3.642527 0.000001
v 2.014728 3.647460 -0.031733
v 1.993736 3.660936 -0.054964
v 0.899834 0.190695 -1.558557
v -0.000000 0.190695 -1.799667
v 1.558557 0.190695 -0.899833
v 1.799667 0.190695 0.000000
v 1.558557 0.190695 0.899834
v 0.899834 0.190695 1.661092
v 0.000000 0.190695 1.686732
v -0.899833 0.190695 1.661092
v -1.558557 0.190695 0.899834
v -1.799667 0.190695 0.000001
v -1.558558 0.190695 -0.899832
v -0.899835 0.190695 -1.558557
v 0.685390 0.190695 -1.187131
v -0.000000 0.190695 -1.370781
v 1.187131 0.190695 -0.685390
v 1.370781 0.190695 0.000000
v 1.187131 0.190695 0.685391
v 0.685390 0.190695 1.187131
v 0.000000 0.190695 1.370781
v -0.685390 0.190695 1.187131
v -1.187131 0.190695 0.685391
v -1.370781 0.190695 0.000001
v -1.187131 0.190695 -0.685389
v -0.685391 0.190695 -1.187130
v 0.899834 0.927765 -1.558557
v -0.000000 0.927765 -1.799667
v 1.558557 0.927765 -0.899833
v 1.799667 0.927765 0.000000
v 1.558557 0.927765 0.899834
v 0.899834 0.927765 1.661092
v 0.000000 0.927765 1.660971
v -0.899833 0.927765 1.661092
v -1.558557 0.927765 0.899834
v -1.799667 0.927765 0.000001
v -1.558558 0.927765 -0.899832
v -0.899835 0.927765 -1.558557
v 0.685390 0.927765 -1.187131
v -0.000000 0.927765 -1.370781
v 1.187131 0.927765 -0.685390
v 1.370781 0.927765 0.000000
v 1.187131 0.927765 0.685391
v 0.685390 0.927765 1.187131
v 0.000000 0.927765 1.370781
v -0.685390 0.927765 1.187131
v -1.187131 0.927765 0.685391
v -1.370781 0.927765 0.000001
v -1.187131 0.927765 -0.685389
v -0.685391 0.927765 -1.187130
v 0.449917 0.190695 1.673912
v -0.449916 0.190695 1.673912
v -0.899833 0.559230 1.661092
v 0.449917 0.927765 1.661032
v -0.449916 0.927765 1.661032
v 0.899834 0.559230 1.661092
v -0.449916 0.559230 1.667472
v 0.449917 0.559230 1.667472
v 0.674875 0.190695 1.667502
v -0.224958 0.190695 1.680322
v -0.899833 0.743497 1.661092
v 0.674875 0.927765 1.661062
v -0.224958 0.927765 1.661002
v 0.899834 0.374963 1.661092
v 0.224959 0.190695 1.680322
v -0.674875 0.190695 1.667502
v -0.899833 0.374963 1.661092
v 0.224959 0.927765 1.661002
v -0.674875 0.927765 1.661062
v 0.899834 0.743497 1.661092
v 0.000000 0.743497 1.667412
v -0.449916 0.743497 1.664252
v -0.449916 0.374963 1.670692
v -0.674875 0.559230 1.664282
v -0.224958 0.559230 1.670662
v 0.449917 0.743497 1.664252
v 0.449917 0.374963 1.670692
v 0.224959 0.559230 1.670662
v 0.674875 0.559230 1.664282
v 0.674875 0.374963 1.665892
v 0.224959 0.374963 1.675492
v 0.224959 0.743497 1.665832
v -0.224958 0.374963 1.675492
v -0.674875 0.374963 1.665892
v -0.674875 0.743497 1.662672
v -0.224958 0.743497 1.665832
v 0.674875 0.743497 1.662672
v 0.224959 0.651364 1.668247
v 0.112479 0.743497 1.666622
v -0.224958 0.651364 1.668247
v -0.112479 0.743497 1.666622
v -0.224958 0.193838 1.735666
v 0.000000 0.193838 1.742076
v 0.000000 0.378105 1.735636
v 0.000000 0.654506 1.725975
v 0.000000 0.562372 1.729195
v 0.112479 0.562372 1.727600
v 0.224959 0.193838 1.735666
v -0.112479 0.562372 1.727600
v -0.224958 0.562372 1.726005
v 0.224959 0.378105 1.730836
v 0.224959 0.562372 1.726005
v 0.112479 0.746640 1.721965
v 0.000000 0.746640 1.722755
v -0.224958 0.378105 1.730836
v 0.224959 0.654506 1.723590
v -0.224958 0.654506 1.723590
v -0.112479 0.746640 1.721965
v -0.112479 0.654506 1.724783
v 0.112479 0.654506 1.724783
v -0.112479 0.193838 1.738871
v -0.112479 0.378105 1.733236
v 0.112479 0.378105 1.733236
v 0.112479 0.193838 1.738871
vn 0.2588 0.0000 -0.9659
vn 0.7071 0.0000 -0.7071
vn 0.9659 0.0000 -0.2588
vn 0.9659 0.0000 0.2588
vn 0.7071 0.0000 0.7071
vn 0.2588 0.0000 0.9659
vn -0.2588 0.0000 0.9659
vn -0.7071 0.0000 0.7071
vn -0.9659 0.0000 0.2588
vn -0.9659 0.0000 -0.2588
vn 0.0000 1.0000 0.0000
vn -0.7071 0.0000 -0.7071
vn -0.2588 0.0000 -0.9659
vn 0.0000 -1.0000 -0.0000
vn -0.9366 0.2409 0.2544
vn 0.7316 -0.0685 -0.6783
vn 0.2499 0.2507 0.9352
vn 0.9322 0.2674 -0.2440
vn -0.9366 0.2409 -0.2544
vn -0.2186 0.2436 0.9449
vn 0.9322 0.2674 0.2440
vn -0.6789 0.2430 -0.6929
vn 0.2673 0.2546 -0.9294
vn -0.6789 0.2429 0.6929
vn 0.6925 0.2623 0.6721
vn -0.2358 0.2475 -0.9397
vn 0.6925 0.2623 -0.6721
vn 0.3002 0.3194 -0.8988
vn -0.6690 0.7026 0.2425
vn 0.3583 0.1592 0.9199
vn 0.9447 -0.2126 -0.2495
vn -0.6690 0.7026 -0.2425
vn -0.0757 0.3995 0.9136
vn 0.9447 -0.2126 0.2495
vn -0.4522 0.5944 -0.6650
vn 0.3583 0.1592 -0.9199
vn -0.4522 0.5944 0.6650
vn 0.7316 -0.0685 0.6783
vn -0.0757 0.3995 -0.9136
vn -0.5467 -0.5392 0.6406
vn -0.0056 -0.7364 -0.6765
vn 0.4247 0.8835 0.1977
vn 0.1473 -0.2504 0.9569
vn -0.0886 -0.9681 -0.2344
vn 0.4247 0.8835 -0.1977
vn 0.3002 0.3194 0.8988
vn -0.0886 -0.9681 0.2344
vn 0.3898 0.7110 -0.5853
vn 0.1473 -0.2504 -0.9569
vn 0.3898 0.7110 0.5853
vn -0.0056 -0.7364 0.6765
vn -0.5402 -0.8415 0.0000
vn 0.3165 -0.1042 -0.9428
vn -0.5467 -0.5392 -0.6406
vn 0.9627 0.1257 0.2395
vn -0.1754 -0.3258 0.9290
vn -0.7148 -0.6634 -0.2212
vn 0.9627 0.1257 -0.2395
vn 0.3165 -0.1042 0.9428
vn -0.7148 -0.6634 0.2212
vn 0.7380 0.0523 -0.6728
vn -0.1754 -0.3258 -0.9290
vn 0.7380 0.0523 0.6728
vn -0.0016 -0.9984 0.0567
vn 0.0016 -0.9984 0.0567
vn -0.7562 0.0000 0.6543
vn 0.7562 0.0000 0.6543
vn 0.0034 0.0044 1.0000
vn -0.0034 0.0306 0.9995
vn -0.0034 0.0131 0.9999
vn -0.0178 0.0131 0.9998
vn 0.0034 0.0218 0.9998
vn 0.0178 0.0218 0.9996
vn 0.0178 0.0044 0.9998
vn 0.0178 0.0131 0.9998
vn 0.0249 0.0131 0.9996
vn 0.0249 0.0044 0.9997
vn 0.0249 0.0218 0.9995
vn 0.0034 0.0306 0.9995
vn 0.0106 0.0218 0.9997
vn -0.0178 0.0218 0.9996
vn -0.0249 0.0218 0.9995
vn -0.0178 0.0044 0.9998
vn -0.0249 0.0044 0.9997
vn -0.0249 0.0131 0.9996
vn -0.0034 0.0044 1.0000
vn -0.0106 0.0044 0.9999
vn -0.0106 0.0131 0.9999
vn -0.0034 0.0218 0.9998
vn -0.0106 0.0218 0.9997
vn 0.0034 0.0131 0.9999
vn 0.0106 0.0131 0.9999
vn 0.0106 0.0044 0.9999
vn -0.0070 0.0262 0.9996
vn 0.0070 0.0262 0.9996
vn 1.0000 -0.0000 0.0000
vn 0.0004 0.9984 -0.0567
vn 0.6334 0.7725 -0.0439
vn -0.0004 0.9984 -0.0567
vn -1.0000 -0.0000 0.0000
vn -0.6334 0.7725 -0.0439
vn -0.0177 0.0284 0.9994
vn 0.0177 0.0327 0.9993
vn 0.0249 0.0327 0.9992
vn 0.0106 0.0306 0.9995
vn -0.0249 0.0284 0.9993
vn -0.0088 0.0327 0.9994
vn -0.0106 0.0306 0.9995
vn -0.0124 0.0284 0.9995
vn -0.0124 0.0327 0.9994
vn 0.0088 0.0327 0.9994
vn 0.0124 0.0327 0.9994
vn 0.0124 0.0284 0.9995
vn -0.0177 0.0327 0.9993
vn -0.0249 0.0327 0.9992
vn 0.0249 0.0284 0.9993
vn 0.0177 0.0284 0.9994
usemtl Material.001
s off
f 41//21 42//21 44//21 43//21
f 43//22 44//22 46//22 45//22
f 45//23 46//23 48//23 47//23
f 47//24 48//24 50//24 49//24
f 49//25 50//25 52//25 51//25
f 51//26 52//26 54//26 53//26
f 53//27 54//27 56//27 55//27
f 55//28 56//28 58//28 57//28
f 57//29 58//29 60//29 59//29
f 59//30 60//30 62//30 61//30
f 64//31 62//31 135//31 136//31
f 61//32 62//32 64//32 63//32
f 63//33 64//33 42//33 41//33
f 41//34 43//34 45//34 47//34 49//34 51//34 53//34 55//34 57//34 59//34 61//34 63//34
f 74//35 73//35 85//35 86//35
f 54//31 52//31 130//31 181//31 173//31 187//31 131//31
f 68//34 69//34 141//34 140//34
f 75//34 76//34 148//34 147//34
f 44//31 42//31 126//31 125//31
f 67//34 68//34 140//34 139//34
f 58//31 56//31 132//31 133//31
f 48//31 46//31 127//31 128//31
f 74//34 75//34 147//34 146//34
f 65//34 67//34 139//34 137//34
f 73//34 74//34 146//34 145//34
f 62//31 60//31 134//31 135//31
f 79//36 77//36 89//36 91//36
f 71//37 70//37 82//37 83//37
f 68//38 67//38 79//38 80//38
f 75//39 74//39 86//39 87//39
f 72//40 71//40 83//40 84//40
f 69//41 68//41 80//41 81//41
f 76//42 75//42 87//42 88//42
f 65//43 66//43 78//43 77//43
f 73//44 72//44 84//44 85//44
f 70//45 69//45 81//45 82//45
f 66//46 76//46 88//46 78//46
f 67//47 65//47 77//47 79//47
f 90//48 100//48 112//48 102//48
f 86//49 85//49 97//49 98//49
f 83//50 82//50 94//50 95//50
f 80//51 79//51 91//51 92//51
f 87//52 86//52 98//52 99//52
f 84//53 83//53 95//53 96//53
f 81//54 80//54 92//54 93//54
f 88//55 87//55 99//55 100//55
f 77//56 78//56 90//56 89//56
f 85//57 84//57 96//57 97//57
f 82//58 81//58 93//58 94//58
f 78//59 88//59 100//59 90//59
f 106//60 105//60 117//60 118//60
f 91//61 89//61 101//61 103//61
f 98//62 97//62 109//62 110//62
f 95//63 94//63 106//63 107//63
f 92//64 91//64 103//64 104//64
f 99//65 98//65 110//65 111//65
f 96//66 95//66 107//66 108//66
f 93//67 92//67 104//67 105//67
f 100//68 99//68 111//68 112//68
f 89//69 90//69 102//69 101//69
f 97//70 96//70 108//70 109//70
f 94//71 93//71 105//71 106//71
f 113//72 114//72 124//72 123//72 122//72 121//72 120//72 119//72 118//72 117//72 116//72 115//72
f 102//73 112//73 124//73 114//73
f 103//74 101//74 113//74 115//74
f 110//75 109//75 121//75 122//75
f 107//76 106//76 118//76 119//76
f 104//77 103//77 115//77 116//77
f 111//78 110//78 122//78 123//78
f 108//79 107//79 119//79 120//79
f 105//80 104//80 116//80 117//80
f 112//81 111//81 123//81 124//81
f 101//82 102//82 114//82 113//82
f 109//83 108//83 120//83 121//83
f 141//32 142//32 166//32 165//32
f 148//26 138//26 162//26 172//26
f 140//30 141//30 165//30 164//30
f 147//25 148//25 172//25 171//25
f 139//29 140//29 164//29 163//29
f 146//24 147//24 171//24 170//24
f 76//34 66//34 138//34 148//34
f 69//34 70//34 142//34 141//34
f 50//31 48//31 128//31 129//31
f 60//31 58//31 133//31 134//31
f 70//34 71//34 143//34 142//34
f 71//34 72//34 144//34 143//34
f 46//31 44//31 125//31 127//31
f 56//31 54//31 131//31 182//31 174//31 188//31 132//31
f 42//31 64//31 136//31 126//31
f 72//34 73//34 145//34 144//34
f 66//34 65//34 137//34 138//34
f 52//31 50//31 129//31 130//31
f 142//33 143//33 167//33 166//33
f 143//21 144//21 168//21 167//21
f 144//22 145//22 169//22 168//22
f 138//27 137//27 161//27 162//27
f 145//23 146//23 170//23 169//23
f 137//28 139//28 163//28 161//28
f 182//84 131//84 215//84 233//84 214//84
f 131//85 187//85 220//85 236//85 215//85
usemtl Material.002
f 128//23 127//23 151//23 152//23
f 135//30 134//30 158//30 159//30
f 127//22 125//22 149//22 151//22
f 134//29 133//29 157//29 158//29
f 125//21 126//21 150//21 149//21
f 133//86 132//86 189//86 175//86 183//86 156//86 157//86
f 155//31 190//31 176//31 184//31 154//31 166//31 167//31
f 154//31 153//31 165//31 166//31
f 153//31 152//31 164//31 165//31
f 150//31 160//31 172//31 162//31
f 149//31 150//31 162//31 161//31
f 152//31 151//31 163//31 164//31
f 160//31 159//31 171//31 172//31
f 151//31 149//31 161//31 163//31
f 159//31 158//31 170//31 171//31
f 158//31 157//31 169//31 170//31
f 157//31 156//31 168//31 169//31
f 156//31 191//31 177//31 185//31 155//31 167//31 168//31
f 136//32 135//32 159//32 160//32
f 129//24 128//24 152//24 153//24
f 126//33 136//33 160//33 150//33
f 130//87 129//87 153//87 154//87 192//87 178//87 186//87
f 209//88 192//88 154//88 184//88
f 208//89 213//89 193//89 155//89 185//89
f 207//90 194//90 177//90 191//90
f 206//91 195//91 179//91 196//91
f 204//92 198//92 176//92 190//92
f 203//93 199//93 180//93 200//93
f 202//94 186//94 178//94 201//94
f 199//95 202//95 201//95 180//95
f 173//96 181//96 202//96 199//96
f 181//97 130//97 186//97 202//97
f 187//98 173//98 199//98 203//98
f 193//99 211//99 204//99 190//99 155//99
f 200//100 180//100 198//100 204//100 210//100
f 195//101 205//101 197//101 179//101
f 174//102 182//102 205//102 195//102
f 189//103 206//103 196//103 175//103
f 132//104 188//104 206//104 189//104
f 188//105 174//105 195//105 206//105
f 183//106 207//106 191//106 156//106
f 175//107 196//107 207//107 183//107
f 196//108 179//108 194//108 207//108
f 194//109 208//109 185//109 177//109
f 179//110 197//110 212//110 208//110 194//110
f 198//111 209//111 184//111 176//111
f 180//112 201//112 209//112 198//112
f 201//113 178//113 192//113 209//113
f 213//114 208//114 212//114
f 211//115 210//115 204//115
usemtl Material.003
f 203//116 200//116 224//116 223//116
f 193//117 213//117 230//117 226//117
f 210//118 211//118 225//118 228//118
f 211//119 193//119 226//119 225//119
f 212//120 197//120 222//120 229//120
f 205//120 182//120 214//120 227//120
f 213//121 212//121 229//121 230//121
f 197//120 205//120 227//120 222//120
f 187//116 203//116 223//116 220//116
f 200//116 210//116 228//116 224//116
f 227//122 234//122 221//122 222//122
f 216//123 235//123 219//123 218//123
f 215//124 236//124 235//124 216//124
f 232//125 228//125 225//125
f 214//126 233//126 234//126 227//126
f 231//127 217//127 226//127 230//127
f 229//128 231//128 230//128
f 222//129 221//129 231//129 229//129
f 221//130 218//130 217//130 231//130
f 217//131 232//131 225//131 226//131
f 218//132 219//132 232//132 217//132
f 219//133 224//133 228//133 232//133
f 221//134 234//134 216//134 218//134
f 234//135 233//135 215//135 216//135
f 235//136 236//136 220//136 223//136
f 219//137 235//137 223//137 224//137
